<?xml version="1.0" encoding="UTF-8" standalone="no"?>
<!DOCTYPE svg PUBLIC "-//W3C//DTD SVG 1.1//EN" "http://www.w3.org/Graphics/SVG/1.1/DTD/svg11.dtd">
<svg width="100%" height="100%" viewBox="0 0 234 153" version="1.1" xmlns="http://www.w3.org/2000/svg" xmlns:xlink="http://www.w3.org/1999/xlink" xml:space="preserve" xmlns:serif="http://www.serif.com/" style="fill-rule:evenodd;clip-rule:evenodd;stroke-linejoin:round;stroke-miterlimit:2;">
    <g transform="matrix(1,0,0,1,226.913,104.631)">
        <path d="M0,-56.572C-3.086,-72.87 -11.86,-83.023 -20.852,-89.301C-30.15,-95.794 -41.289,-99.131 -52.63,-99.131L-213.589,-99.131C-219.187,-99.131 -221.332,-93.663 -221.354,-90.926C-221.356,-90.568 -221.344,-89.139 -221.344,-89.139C-221.344,-89.139 -221.607,-17.929 -221.107,20.105C-219.589,42.559 -197.091,42.551 -197.091,42.551C-197.091,42.551 -123.64,42.336 -88.413,42.117C-86.761,42.107 -85.11,41.929 -83.508,41.528C-63.452,36.51 -61.377,17.877 -61.591,7.491C-21.277,9.73 7.166,-18.717 0,-56.572M-45.286,-19.615C-53.884,-18.541 -60.869,-19.346 -60.869,-19.346L-60.869,-71.991L-50.29,-71.991C-43.299,-71.991 -36.554,-69.079 -31.992,-63.781C-28.78,-60.051 -26.211,-54.801 -26.211,-47.549C-26.211,-29.822 -35.346,-22.838 -45.286,-19.615Z" style="fill:white;fill-rule:nonzero;stroke:black;stroke-width:11px;"/>
    </g>
    <g transform="matrix(1,0,0,1,84.4023,33.9548)">
        <path d="M0,83.697C1.75,84.578 2.869,83.483 2.869,83.483C2.869,83.483 28.487,60.101 40.028,46.635C50.293,34.589 50.962,14.289 33.334,6.704C15.706,-0.881 1.202,15.627 1.202,15.627C-11.376,1.794 -30.412,2.494 -39.217,11.856C-48.021,21.218 -44.946,37.286 -38.378,46.229C-32.212,54.624 -5.111,78.778 -1.004,82.863C-1.004,82.863 -0.704,83.176 0,83.697" style="fill:rgb(255,94,91);fill-rule:nonzero;"/>
    </g>
</svg>
